<?xml version="1.0" encoding="utf-8"?>
<!-- Generator: Adobe Illustrator 12.0.0, SVG Export Plug-In . SVG Version: 6.00 Build 51448)  -->
<!DOCTYPE svg PUBLIC "-//W3C//DTD SVG 1.1//EN" "http://www.w3.org/Graphics/SVG/1.1/DTD/svg11.dtd" [
<!ENTITY ns_svg "http://www.w3.org/2000/svg">
<!ENTITY ns_xlink "http://www.w3.org/1999/xlink">
]>
<svg  version="1.1" id="Layer_1" xmlns="&ns_svg;" xmlns:xlink="&ns_xlink;" width="128" height="128" viewBox="0 0 128 128">
<g id="clubs">
	<path d="M36.191,26.438c0,14.591,12.533,26.439,28.055,26.439c15.523,0,28.058-11.848,28.058-26.439C92.305,11.851,79.77,0,64.247,0C48.724,0,36.191,11.851,36.191,26.438z"/>
	<path d="M0,76.494c0,14.588,12.534,26.438,28.059,26.438c15.522,0,28.055-11.851,28.055-26.438c0-14.587-12.533-26.438-28.055-26.438C12.534,50.056,0,61.907,0,76.494z"/>
	<path d="M71.883,76.658c0,5.318,1.663,10.315,4.568,14.509c4.98,7.173,13.698,11.93,23.49,11.93c15.522,0,28.059-11.851,28.059-26.438c0-14.591-12.536-26.438-28.059-26.438S71.883,62.067,71.883,76.658z"/>
	<path d="M31.295,128c13.86,0,21.166-10.959,24.984-21.924c3.818-10.959,4.149-21.924,4.149-21.924h7.143c0,0,1.325,43.769,29.052,43.848H31.295z"/>
	<path d="M83.257,45.866c-15.77,15.316-15.77,38.287-15.77,38.287l-7.059,0.082c0,0,0-23.457-15.354-38.369"/>
	<path d="M80.101,95.032C64.334,79.72,40.675,79.72,40.675,79.72v-6.851c0,0,24.152,0,39.513-14.913"/>
	<path d="M48.477,95.117c15.77-15.315,39.429-15.315,39.429-15.315V72.95c0,0-24.153,0-39.514-14.915"/>
</g>
<g id="diamonds">
	<path d="M64.001,64c21.333,0,42.666,0,63.999,0c-7.29-0.315-13.494-4.875-19.349-8.649c-13.161-9.6-25.484-20.611-35.216-33.493C68.89,15.381,64.121,8.091,64.001,0 M128,64c-9.25,0.282-17.15,5.979-24.199,11.228c-12.459,10.119-23.242,22.153-32.344,35.18c-3.341,5.394-7.272,11.103-7.456,17.593c0-21.333,0-42.66,0-64 M64.001,128c-0.319-9.528-6.316-17.783-11.984-25.146C41.919,90.682,29.95,79.913,16.784,70.91C11.667,67.819,6.235,64.151,0,64c21.334,0,42.666,0,64.001,0 M0,64c9.25-0.282,17.15-5.972,24.201-11.221c12.458-10.122,23.241-22.157,32.342-35.183C59.884,12.206,63.812,6.49,64.001,0c0,21.336,0,42.667,0,64Z"/>
</g>
<g id="hearts">
	<path d="M128,32.325C127.911,70.29,78.683,97.936,64.248,128C49.65,98.015,0.335,70.611,0,32.646C-0.083,14.752,14.269,0.161,31.876,0.161C49.565,0.161,64,14.588,64,32.482C64,14.509,78.269,0,95.876,0C113.564-0.079,127.911,14.43,128,32.325z"/>
</g>
<g id="spades">
	<path d="M26.831,128c15.838,0,24.179-14.366,28.537-28.732c4.365-14.362,4.743-28.729,4.743-28.729l8.058-0.082c0,0,1.521,57.543,33.189,57.543H26.831z"/>
	<path d="M0,70.457C0.093,42.451,49.49,22.116,64,0c14.507,22.195,63.905,42.533,64,70.457c0,13.236-14.317,23.969-32.047,23.969C78.317,94.426,64,83.693,64,70.457c0,13.236-14.317,23.969-32.051,23.969C14.218,94.426,0,83.693,0,70.457z"/>
</g>
</svg>
